# xmcd
#
# Track frame offsets:
#	180
#	15439
#	34373
#	52911
#	66318
#	80941
#	97920
#	114756
#	128241
#	142631
#	157709
#	171895
#
# Disc length: 2496 seconds
#
# Revision: 0
# Processed by: cddbd v1.5.1PL0 Copyright (c) Steve Scherf et al.
# Submitted via: dBpowerAMP V4.0
#
DISCID=8c09be0c
DTITLE=Ron Hynes - Standing In Line In The Rain
DYEAR=1998
DGENRE=Country
TTITLE0=Picture Of Dorian Grey
TTITLE1=Shine Like Diamonds
TTITLE2=She Never Will
TTITLE3=You Drove Me There
TTITLE4=Do You
TTITLE5=Last Chance Avenue
TTITLE6=Constant In The Heart
TTITLE7=Lonely Song
TTITLE8=Name Without A Face
TTITLE9=Native Side
TTITLE10=Pilot
TTITLE11=Saviour
EXTD=
EXTT0=
EXTT1=
EXTT2=
EXTT3=
EXTT4=
EXTT5=
EXTT6=
EXTT7=
EXTT8=
EXTT9=
EXTT10=
EXTT11=
PLAYORDER=
